<?xml version="1.0" encoding="UTF-8"?>
<svg id="Layer_1" xmlns="http://www.w3.org/2000/svg" version="1.1" viewBox="0 0 1000 1000">
  <!-- Generator: Adobe Illustrator 29.7.1, SVG Export Plug-In . SVG Version: 2.1.1 Build 8)  -->
  <defs>
    <style>
      .st0 {
        fill: #5d33c7;
      }

      .st1 {
        fill: #ff931e;
      }
    </style>
  </defs>
  <g id="Layer_4">
    <g>
      <path class="st0" d="M876.74,194.49l-71.5,59c-.1-.1-.29-.24-.4-.35,6.41,6.54,3.98,18.74-2.5,28.42-13.52,20.21-92.01,99.59-112.37,110.07-13.64,7.03-20.78,8.18-26.75,8.87-20.21,2.36-42.23-4.47-63.13-10.94-2.62-.82-5.31-1.42-7.95-2.16-8.33-2.3-9.79-2.84-11.54-2.01-2.12,1-2.46,2.95-5.13,9.27-1.56,3.69-3.53,7.19-5.11,10.88,0,0-27.59,64.21-32.44,80.43-.46,1.56-.92,3.64-2.15,6.87-.39,1.04-.79,2.02-1.18,3.56-.46,1.87-.78,3.15-.58,4.7.26,1.96,1.2,3.3,2.22,4.7,1.27,1.77,2.56,2.89,4.14,4.15,3.04,2.46,4.65,3.54,6.69,5.03,37.37,27.34,104.05,65.37,102.09,107.84-.49,10.63-10.91,27.91-16.35,37.66-13.49,24.25-53.09,86.9-70.45,106-9.99,10.99-22.08,14.03-30.95,9.67-4.1-2.02-8.74-6.7-10.6-13.07-1.58-5.43-.56-10.05,0-12.08,3.31-9.72,6.47-18.19,9.22-25.19,4.49-11.47,8.2-19.86,9.21-22.13.92-2.08,3.06-6.85,5.96-12.93,3.14-6.59,7.29-14.95,12.5-24.59,1.94-3.25,4.01-6.59,6.21-9.97,2.43-3.75,4.87-7.33,7.29-10.73.51-.95,1.37-2.94.98-5.34-.05-.28-.11-.74-.34-1.29-.63-1.61-1.84-2.47-4.69-4.49-2.65-1.89-3.99-2.8-4.69-3.26-65.36-43.38-103.85-53.37-128.05-73.74-22-18.54-39.72-59.63-19.86-158.96,1.47-4.49,4.3-14.44.53-17.15-1.48-1.07-3.45-.5-4.34-.44-12.8.79-50.29,14.97-63.63,20.89-7.89,3.5-20.29,11.52-33.27,20.16-8.74,5.82-17.74,11.92-25.82,17.11-11.74,7.55-16.53,11.48-24.98,13.21-5.23,1.07-15.09,3.1-20.55-2.45-.94-.95-1.61-2.1-2.16-3.3.05.14.1.3.15.43l-117.96,66.44c.41,6.2.88,11.93,1.43,17.1,6.55,61.76,22.58,120.45,57.67,172.35,31.64,46.79,73.32,88.52,73.32,88.52,4.55,4.33,8.41,7.82,11.01,10.14,1.35,1.2,2.41,2.68,5.03,5.14,1.33,1.24,2.7,2.45,4.67,2.67,1.27.15,2.27-.18,2.48-.25,1.37-.46,2.2-1.37,2.62-1.81,1.48-1.53,3.44-4.24,5.78-7.94,1.27-1.98,2.63-4.25,4.11-6.77,1.94-3.31,4.05-7.06,6.3-11.19,32.42-59.26,94.15-194.3,94.15-194.3,1.27-2.76,4.06-8.25,9.5-10.1,6.13-2.07,12.33,1.63,17.5,4.62,19.4,11.2,38.08,23.61,57.51,34.73,2.48,1.42,7.56,4.27,8.42,9.25s-2.97,9.53-4.86,11.52l-137.9,167.56c-7.03,8.54-14.06,17.09-21.09,25.63-1.34,1.69-2.7,3.37-4.04,5.07-.73.98-1.73,2.65-1.69,4.73.06,3.26,2.63,5.57,4.09,6.84,7.65,6.66,12.07,9,16.05,11.99,36.24,27.22,72.44,55.09,111.32,78.35,17.75,10.61,40.42,28.77,62.05,24.46,15.92-3.17,59.16-33.14,75.4-43.63,14.08-9.1,61.31-39.3,69.44-49.48,7.28-9.11-10.83-11.59-17.35-17.31-66.6-58.39,10.09-137.38,67.31-115.82,17.63,6.65,32.89,27.39,35.09,33.62,2.77,7.9,3,9.16,3,9.16.61,3.54.54,6.7,2.17,7.29.94.34,2.22-.26,2.95-.61,1.1-.53,1.82-1.23,2.23-1.71,1.53-1.3,3.76-3.24,6.44-5.63,88.23-79.21,118.68-185.9,123.91-228.08.31-2.52.54-4.82.68-6.86.18-2.63.25-4.7.34-8.83.06-3.09.13-7.09.18-11.78-2.37-108.15-3.36-216.31-3-324.44v-2.96h.03Z"/>
      <path class="st1" d="M240.34,446.44c-.84-1.82-1.28-3.84-1.39-5.96-.16-1.43-.24-2.94-.09-4.58.23-2.35.83-4.52,1.73-6.56.25-.73.5-1.43.77-2.08,2.11-4.99,5.12-8,14.49-14.88h0c8.74-7.23,20.85-16.45,36.47-26.11.04-.03.08-.05.1-.08,21.54-16.21,40.1-28.87,53.82-37.86,18.73-12.29,30.52-19.98,47.67-28.84.63-.33,1.18-.6,1.79-.92,1.88-.99,3.78-1.97,5.66-2.91,17.24-8.83,30.07-14.83,48.11-19.02,16.12-4.35,32.03-6.34,47.46-5.06,4.58.38,9.26,1.04,13.99,1.91,9.62,1.43,18.12,3.88,31.94,8.28,2.72.85,5.46,1.73,8.19,2.62.4.13.78.25,1.19.39,13.71,4.42,27.11,9.42,47.45,15.33,3.89,1.08,7.74,2.08,11.53,2.92,12.09,2.7,21.35,4.62,29.42,5.37.1,0,.18.01.28.03.31.03.61.04.92.06,1.82.11,3.71.19,5.67.23,11.4.04,21.21-2.85,35.09-10.1.04-.03.09-.04.13-.06.8-.43,1.68-.92,2.52-1.37,10.75-5.87,18.58-11.49,24.61-15.88,2.51-1.91,5.14-3.94,7.87-6.06,2.41-1.92,5.95-4.7,11.97-9.38,7.11-5.57,14.49-11.29,21.7-16.53,16.11-11.77,21.63-14.41,24.5-15.68.05-.03.1-.04.16-.06,6.54-3.32,12.29-5.28,16.76-5.06,1.58.08,2.99.31,4.3.6,1.84.31,3.15.87,4.06,1.34.06.04.11.08.18.11,1.38.7,2.53,1.56,3.5,2.55.11.11.3.25.4.35l71.5-59c-.03-15.27.11-30.42.51-45.43-7.44-24.69-32.14-29.95-53.74-38.31-81.03-31.41-264.93-79.02-348.64-72.32-70.14,5.62-171.24,31.28-239.34,52.2-17.28,5.31-91.23,28.98-100.48,37.62-7.94,7.41-11.15,23.64-11.83,34.2,2.46,25.4-4.69,193.71-2.55,303.31l1.84,47.5v.06l117.96-66.44c-.05-.13-.1-.29-.15-.43h-.01ZM552.24,144.55c35.68,0,64.6,28.92,64.6,64.6s-28.92,64.6-64.6,64.6-64.6-28.92-64.6-64.6,28.92-64.6,64.6-64.6h0Z"/>
    </g>
  </g>
</svg>