<?xml version="1.0" encoding="UTF-8"?>
<svg id="Layer_1" xmlns="http://www.w3.org/2000/svg" version="1.1" xmlns:xlink="http://www.w3.org/1999/xlink" viewBox="0 0 217.39 106.14">
  <!-- Generator: Adobe Illustrator 29.7.1, SVG Export Plug-In . SVG Version: 2.1.1 Build 8)  -->
  <defs>
    <style>
      .st0 {
        fill: #fff;
      }

      .st1 {
        fill: url(#linear-gradient);
      }
    </style>
    <linearGradient id="linear-gradient" x1="0" y1="53.07" x2="169.41" y2="53.07" gradientUnits="userSpaceOnUse">
      <stop offset="0" stop-color="#87d038"/>
      <stop offset="1" stop-color="#87d038"/>
    </linearGradient>
  </defs>
  <path id="Layer_11" data-name="Layer_1" class="st1" d="M164.32,0h0s-.38,0-1.06.01c-.21,0-.41.01-.62.02C148.18.45,44.26,6.94,0,106.14h90.11c13.12-10.79,47.74-37.97,51.63-41.75.41-.4.67-1.09.73-1.67.1-.9.34-1.63,1-2.27,1.81-1.78,3.59-3.61,5.34-5.45.46-.48.87-1.07,1.12-1.69,2.13-5.37,4.23-10.74,6.3-16.13.27-.7.65-1.15,1.36-1.39.83-.28,1.64-.64,2.52-.99-.18-.4-.31-.71-.47-1.01-1.05-2-1.07-2.04-3.21-1.39-1.3.4-2.45.31-3.67-.29-1.6-.8-3.25-1.49-4.91-2.15-.43-.17-1.04-.2-1.45-.02-4.07,1.83-8.12,3.74-12.18,5.59-.63.29-.82.67-.81,1.35l-.1,3.83-4.84.89-1.11-3.72,2.34-2.62c.81-.34,1.65-.73,2.34-1.26,4.02-3.12,8-6.3,12-9.44.31-.25.69-.49,1.07-.56,2.17-.38,4.35-.67,6.51-1.06,1.2-.22,2.32-.17,3.38.45,1.03.6,2.13.55,3.2.26,2.4-.67,4.58-.41,6.51,1.29.43.38.97.64,1.47.96,1.76,1.12,3.52,2.23,5.23,3.32.72-.58,1.34-1.02,1.88-1.54.24-.23.41-.6.46-.93.23-1.62.51-3.25.59-4.88.13-2.58,1.45-3.74,3.97-4.04,1.26-.15,2.4-.25,3.6.28,1.76.78,3.57,1.45,5.36,2.16,1.41.57,1.47.59.96,1.99-.58,1.58-.83,3.15-.63,4.84.14,1.14.03,2.31.03,3.52-.34.02-.65.08-.95.04-.86-.11-1.29.22-1.47,1.1-.21,1.07-.58,2.11-.93,3.3-2.15-1.11-4.22-2.16-6.35-3.26-.43,1.18-.89,2.25-1.19,3.37-.13.5-.1,1.19.15,1.61,1.13,1.89,2.33,3.74,3.57,5.55.88,1.29,1.31,2.57.75,4.13-.31.86-.34,1.82-.59,2.72-.22.81-.04,1.4.7,1.78,1.3.67,1.76,1.76,1.83,3.17.07,1.31.35,2.6.55,4.03,2.39-1.21,4.62-2.34,6.79-3.43-.67-2.03-1.29-3.91-1.91-5.82.84-.41,1.54-.76,2.25-1.1.93-.45,3.2-.2,3.88.56,1.02,1.15,1.93,2.39,3.04,3.78-5.1,5.19-10.12,10.31-15.14,15.42-4.71-3.88-9.38-7.54-11.17-13.61,1.12-.65,2.26-1.32,3.51-2.05-.72-.67-1.37-1.22-1.97-1.83-.43-.44-.82-.45-1.37-.23-1.75.71-3.53,1.34-5.28,2.06-.38.16-.74.5-.98.84-1.17,1.66-2.31,3.34-3.44,5.02-.93,1.39-1.85,2.79-2.81,4.25,3.11,1.54,6.11,2.99,9.08,4.5,3.28,1.67,6.53,3.38,9.78,5.1.32.17.66.54.72.88.35,1.81.46,3.61-.58,5.29-.29.46-.38,1.05-.68,1.5-.28.42-.64.89-1.08,1.09-6.06,2.62-12.13,5.2-18.2,7.81-.47.2-.92.47-1.3.81-2.19,1.94-4.35,3.9-6.51,5.87-1.29,1.18-2.56,2.38-4,3.72,1.66-4.58,3.25-8.93,4.81-13.29.21-.6.58-.73,1.1-.56.76.26,1.37.02,2.02-.37,3.19-1.91,6.41-3.76,9.6-5.65,1.07-.64,2.11-1.33,3.23-2.03-4.34-1.34-8.57-2.61-12.77-3.99-.97-.32-1.72-.27-2.6.21-5.43,2.91-38.88,23.61-54.5,33.26h67.09c29.31,0,53.07-23.76,53.07-53.07S193.63,0,164.32,0h0Z"/>
  <circle class="st0" cx="193.4" cy="78.17" r="7.66"/>
</svg>