<?xml version="1.0" encoding="UTF-8"?>
<svg id="Layer_1" xmlns="http://www.w3.org/2000/svg" version="1.1" viewBox="0 0 987 236">
  <!-- Generator: Adobe Illustrator 29.7.1, SVG Export Plug-In . SVG Version: 2.1.1 Build 8)  -->
  <defs>
    <style>
      .st0 {
        fill: #5d33c7;
      }

      .st1 {
        fill: #ff931e;
      }
    </style>
  </defs>
  <g id="Layer_4">
    <g>
      <path class="st0" d="M195.17,40.36l-18.17,14.99s-.07-.06-.1-.09c1.63,1.66,1.01,4.76-.64,7.22-3.44,5.14-23.38,25.31-28.55,27.97-3.47,1.79-5.28,2.08-6.8,2.25-5.14.6-10.73-1.14-16.04-2.78-.67-.21-1.35-.36-2.02-.55-2.12-.58-2.49-.72-2.93-.51-.54.25-.63.75-1.3,2.36-.4.94-.9,1.83-1.3,2.76,0,0-7.01,16.32-8.24,20.44-.12.4-.23.92-.55,1.75-.1.26-.2.51-.3.9-.12.48-.2.8-.15,1.19.07.5.3.84.56,1.19.32.45.65.73,1.05,1.05.77.63,1.18.9,1.7,1.28,9.5,6.95,26.44,16.61,25.94,27.4-.12,2.7-2.77,7.09-4.15,9.57-3.43,6.16-13.49,22.08-17.9,26.93-2.54,2.79-5.61,3.57-7.86,2.46-1.04-.51-2.22-1.7-2.69-3.32-.4-1.38-.14-2.55,0-3.07.84-2.47,1.64-4.62,2.34-6.4,1.14-2.91,2.08-5.05,2.34-5.62.23-.53.78-1.74,1.51-3.29.8-1.67,1.85-3.8,3.18-6.25.49-.83,1.02-1.67,1.58-2.53.62-.95,1.24-1.86,1.85-2.73.13-.24.35-.75.25-1.36-.01-.07-.03-.19-.09-.33-.16-.41-.47-.63-1.19-1.14-.67-.48-1.01-.71-1.19-.83-16.61-11.02-26.39-13.56-32.54-18.74-5.59-4.71-10.09-15.15-5.05-40.39.37-1.14,1.09-3.67.13-4.36-.38-.27-.88-.13-1.1-.11-3.25.2-12.78,3.8-16.17,5.31-2,.89-5.16,2.93-8.45,5.12-2.22,1.48-4.51,3.03-6.56,4.35-2.98,1.92-4.2,2.92-6.35,3.36-1.33.27-3.83.79-5.22-.62-.24-.24-.41-.53-.55-.84.01.04.03.08.04.11L3.51,121.37c.1,1.58.22,3.03.36,4.35,1.66,15.69,5.74,30.61,14.65,43.79,8.04,11.89,18.63,22.49,18.63,22.49,1.16,1.1,2.14,1.99,2.8,2.58.34.3.61.68,1.28,1.31.34.32.69.62,1.19.68.32.04.58-.05.63-.06.35-.12.56-.35.67-.46.38-.39.87-1.08,1.47-2.02.32-.5.67-1.08,1.04-1.72.49-.84,1.03-1.79,1.6-2.84,8.24-15.06,23.92-49.37,23.92-49.37.32-.7,1.03-2.1,2.41-2.57,1.56-.53,3.13.41,4.45,1.17,4.93,2.85,9.68,6,14.61,8.83.63.36,1.92,1.09,2.14,2.35s-.75,2.42-1.23,2.93l-35.04,42.58c-1.79,2.17-3.57,4.34-5.36,6.51-.34.43-.69.86-1.03,1.29-.19.25-.44.67-.43,1.2.02.83.67,1.42,1.04,1.74,1.94,1.69,3.07,2.29,4.08,3.05,9.21,6.92,18.41,14,28.29,19.91,4.51,2.7,10.27,7.31,15.77,6.22,4.05-.81,15.03-8.42,19.16-11.09,3.58-2.31,15.58-9.99,17.64-12.57,1.85-2.31-2.75-2.95-4.41-4.4-16.92-14.84,2.56-34.91,17.1-29.43,4.48,1.69,8.36,6.96,8.92,8.54.7,2.01.76,2.33.76,2.33.15.9.14,1.7.55,1.85.24.09.56-.07.75-.15.28-.13.46-.31.57-.43.39-.33.96-.82,1.64-1.43,22.42-20.13,30.16-47.24,31.49-57.96.08-.64.14-1.22.17-1.74.05-.67.06-1.19.09-2.24.02-.79.03-1.8.05-2.99-.6-27.48-.85-54.97-.76-82.44v-.75h0,0Z"/>
      <path class="st1" d="M33.45,104.39c-.21-.46-.33-.98-.35-1.51-.04-.36-.06-.75-.02-1.16.06-.6.21-1.15.44-1.67.06-.19.13-.36.2-.53.54-1.27,1.3-2.03,3.68-3.78h0c2.22-1.84,5.3-4.18,9.27-6.63.01,0,.02-.01.03-.02,5.47-4.12,10.19-7.34,13.68-9.62,4.76-3.12,7.76-5.08,12.11-7.33.16-.08.3-.15.45-.23.48-.25.96-.5,1.44-.74,4.38-2.24,7.64-3.77,12.22-4.83,4.1-1.11,8.14-1.61,12.06-1.29,1.16.1,2.35.26,3.55.49,2.44.36,4.6.99,8.12,2.1.69.22,1.39.44,2.08.67.1.03.2.06.3.1,3.48,1.12,6.89,2.39,12.06,3.9.99.27,1.97.53,2.93.74,3.07.69,5.43,1.17,7.48,1.36.03,0,.05,0,.07,0,.08,0,.15.01.23.02.46.03.94.05,1.44.06,2.9.01,5.39-.72,8.92-2.57.01,0,.02-.01.03-.02.2-.11.43-.23.64-.35,2.73-1.49,4.72-2.92,6.25-4.04.64-.49,1.31-1,2-1.54.61-.49,1.51-1.19,3.04-2.38,1.81-1.42,3.68-2.87,5.51-4.2,4.09-2.99,5.5-3.66,6.23-3.98.01,0,.03-.01.04-.02,1.66-.84,3.12-1.34,4.26-1.29.4.02.76.08,1.09.15.47.08.8.22,1.03.34.02.01.03.02.05.03.35.18.64.4.89.65.03.03.08.06.1.09l18.17-14.99c0-3.88.03-7.73.13-11.54-1.89-6.27-8.17-7.61-13.66-9.73C161.06,11.1,114.33-.99,93.05.71c-17.82,1.43-43.51,7.95-60.82,13.26-4.39,1.35-23.18,7.36-25.53,9.56-2.02,1.88-2.83,6.01-3.01,8.69.63,6.45-1.19,49.22-.65,77.07l.47,12.07v.02l29.97-16.88s-.03-.07-.04-.11h0,0ZM112.71,27.67c9.07,0,16.42,7.35,16.42,16.42s-7.35,16.42-16.42,16.42-16.42-7.35-16.42-16.42,7.35-16.42,16.42-16.42h0Z"/>
    </g>
  </g>
  <g id="Layer_2">
    <g>
      <path class="st0" d="M241.97,168.69V38.08h36.2l52.25,85.27h-19.03l50.75-85.27h36.2l.37,130.62h-40.12l-.37-70.16h6.34l-34.71,58.4h-19.41l-36.2-58.4h7.84v70.16h-40.12Z"/>
      <path class="st0" d="M450.96,173.36l-44.41-106.73h43.29l30.6,79.49-29.48,27.24ZM441.07,206.76c-5.6,0-11.29-.84-17.07-2.52-5.78-1.68-10.42-3.89-13.9-6.62l13.99-28.92c2.11,1.62,4.51,2.92,7.18,3.92,2.67.99,5.25,1.49,7.74,1.49,3.73,0,6.59-.78,8.58-2.33,1.99-1.56,3.61-3.89,4.85-7l4.29-10.82,2.99-4.1,32.65-83.22h39.93l-41.98,104.12c-3.73,9.33-8.06,16.61-12.97,21.83-4.92,5.22-10.39,8.89-16.42,11.01-6.04,2.11-12.66,3.17-19.87,3.17Z"/>
      <path class="st1" d="M607.69,171.68c-10.45,0-20.12-1.65-29.02-4.94-8.9-3.29-16.61-7.99-23.14-14.09-6.53-6.09-11.6-13.31-15.21-21.65-3.61-8.33-5.41-17.54-5.41-27.62s1.8-19.28,5.41-27.62c3.61-8.33,8.68-15.55,15.21-21.65,6.53-6.09,14.24-10.79,23.14-14.09,8.89-3.29,18.57-4.94,29.02-4.94,12.81,0,24.16,2.24,34.05,6.72,9.89,4.48,18.07,10.95,24.54,19.41l-27.8,24.82c-3.86-4.85-8.12-8.61-12.78-11.29-4.67-2.67-9.92-4.01-15.77-4.01-4.6,0-8.77.75-12.5,2.24-3.73,1.49-6.94,3.67-9.61,6.53-2.68,2.86-4.76,6.31-6.25,10.36-1.49,4.04-2.24,8.55-2.24,13.53s.75,9.49,2.24,13.53c1.49,4.04,3.58,7.5,6.25,10.36,2.67,2.86,5.88,5.04,9.61,6.53,3.73,1.49,7.9,2.24,12.5,2.24,5.85,0,11.1-1.33,15.77-4.01,4.67-2.67,8.92-6.44,12.78-11.29l27.8,24.82c-6.47,8.34-14.65,14.77-24.54,19.31-9.89,4.54-21.24,6.81-34.05,6.81Z"/>
      <path class="st1" d="M676.36,168.69V30.24h42.17v138.45h-42.17Z"/>
      <path class="st1" d="M779.73,170.56c-8.09,0-15.39-1.65-21.92-4.95-6.53-3.29-11.66-8.46-15.39-15.49-3.73-7.03-5.6-16.08-5.6-27.15v-56.35h42.17v49.07c0,7.22,1.18,12.25,3.54,15.11,2.36,2.86,5.6,4.29,9.7,4.29,2.49,0,4.82-.65,7-1.96,2.18-1.31,3.95-3.48,5.32-6.53,1.37-3.05,2.05-7.06,2.05-12.04v-47.96h42.17v102.07h-40.12v-29.48l8.02,8.02c-3.61,7.96-8.74,13.84-15.39,17.63-6.66,3.8-13.84,5.69-21.55,5.69Z"/>
      <path class="st1" d="M867.43,168.69V30.24h42.17v50.01l-1.87,37.32-.19,37.32v13.81h-40.12ZM935.54,170.56c-9.33,0-16.86-1.87-22.58-5.6-5.72-3.73-9.86-9.52-12.41-17.35-2.55-7.84-3.83-17.85-3.83-30.04s1.37-21.99,4.11-29.76c2.73-7.77,7-13.56,12.78-17.35,5.79-3.79,13.09-5.69,21.92-5.69s17.17,2.12,24.63,6.34c7.46,4.23,13.43,10.29,17.91,18.19,4.48,7.9,6.72,17.32,6.72,28.27s-2.24,20.37-6.72,28.27c-4.48,7.9-10.45,13.99-17.91,18.29-7.46,4.29-15.67,6.44-24.63,6.44ZM925.46,137.72c3.11,0,5.91-.75,8.4-2.24,2.49-1.49,4.48-3.76,5.97-6.81,1.49-3.05,2.24-6.75,2.24-11.1s-.75-8.18-2.24-11.1c-1.49-2.92-3.48-5.13-5.97-6.62-2.49-1.49-5.29-2.24-8.4-2.24s-5.91.75-8.4,2.24c-2.49,1.49-4.48,3.7-5.97,6.62-1.49,2.92-2.24,6.62-2.24,11.1s.75,8.06,2.24,11.1c1.49,3.05,3.48,5.32,5.97,6.81,2.49,1.49,5.29,2.24,8.4,2.24Z"/>
    </g>
  </g>
</svg>